<svg width="28" height="28" viewBox="0 0 28 28" fill="none" xmlns="http://www.w3.org/2000/svg">
<path d="M21.2072 20.8184C19.4089 20.8166 17.9497 22.273 17.9479 24.0713C17.9461 25.8696 19.4026 27.3288 21.2009 27.3306C22.9992 27.3323 24.4584 25.8759 24.4601 24.0776C24.4601 24.0766 24.4601 24.0756 24.4601 24.0745C24.4584 22.2781 23.0035 20.8219 21.2072 20.8184Z" fill="#CDD6DE"/>
<path d="M26.9824 5.22634C26.9045 5.21125 26.8253 5.20358 26.746 5.20346H6.92044L6.60645 3.10283C6.41082 1.70776 5.21752 0.669802 3.80877 0.669373H1.25598C0.562307 0.669373 0 1.23168 0 1.92535C0 2.61902 0.562307 3.18133 1.25598 3.18133H3.8119C3.9716 3.18016 4.10676 3.29907 4.1259 3.45766L6.06009 16.7145C6.32527 18.399 7.77424 19.6417 9.4795 19.6472H22.5448C24.1866 19.6493 25.6029 18.4955 25.9328 16.8872L27.9769 6.69806C28.1087 6.01702 27.6634 5.35813 26.9824 5.22634Z" fill="#CDD6DE"/>
<path d="M13.2305 23.9351C13.154 22.1895 11.7135 20.8154 9.96619 20.8215C8.16937 20.8941 6.7716 22.4096 6.84421 24.2064C6.91388 25.9305 8.31637 27.3009 10.0416 27.3306H10.1201C11.9166 27.2519 13.3092 25.7316 13.2305 23.9351Z" fill="#CDD6DE"/>
</svg>
