<svg width="26" height="26" viewBox="0 0 26 26" fill="none" xmlns="http://www.w3.org/2000/svg">
<path d="M19.0938 1.52344C17.6829 1.52344 16.3894 1.97052 15.2493 2.85228C14.1562 3.69764 13.4284 4.77435 13 5.5573C12.5716 4.7743 11.8438 3.69764 10.7507 2.85228C9.61061 1.97052 8.31711 1.52344 6.90625 1.52344C2.96908 1.52344 0 4.74383 0 9.01438C0 13.6281 3.70414 16.7847 9.31171 21.5633C10.264 22.3749 11.3433 23.2947 12.4652 24.2758C12.613 24.4053 12.803 24.4766 13 24.4766C13.197 24.4766 13.387 24.4053 13.5348 24.2758C14.6568 23.2946 15.7361 22.3748 16.6889 21.5628C22.2959 16.7847 26 13.6281 26 9.01438C26 4.74383 23.0309 1.52344 19.0938 1.52344Z" fill="#CDD6DE"/>
</svg>
