<svg width="28" height="28" viewBox="0 0 28 28" fill="none" xmlns="http://www.w3.org/2000/svg">
<path d="M25.8125 10.1202V23.1875C25.8118 23.8835 25.535 24.5508 25.0429 25.0429C24.5508 25.535 23.8835 25.8118 23.1875 25.8125H18.8125C18.3484 25.8125 17.9033 25.6281 17.5751 25.2999C17.2469 24.9717 17.0625 24.5266 17.0625 24.0625V19.25C17.0625 19.0179 16.9703 18.7954 16.8062 18.6313C16.6421 18.4672 16.4196 18.375 16.1875 18.375H11.8125C11.5804 18.375 11.3579 18.4672 11.1938 18.6313C11.0297 18.7954 10.9375 19.0179 10.9375 19.25V24.0625C10.9375 24.5266 10.7531 24.9717 10.4249 25.2999C10.0967 25.6281 9.65163 25.8125 9.1875 25.8125H4.8125C4.11652 25.8118 3.44924 25.535 2.95711 25.0429C2.46498 24.5508 2.18819 23.8835 2.1875 23.1875V10.1202C2.18815 9.81806 2.26668 9.52114 2.4155 9.25813C2.56432 8.99513 2.77842 8.77492 3.03712 8.61875L13.0996 2.58125C13.3717 2.41798 13.683 2.33173 14.0002 2.33173C14.3175 2.33173 14.6288 2.41798 14.9008 2.58125L24.9633 8.61875C25.2219 8.77497 25.4359 8.99521 25.5847 9.25821C25.7334 9.52121 25.8119 9.8181 25.8125 10.1202V10.1202Z" fill="#7A9E4A"/>
</svg>