<svg width="12" height="16" viewBox="0 0 12 16" fill="none" xmlns="http://www.w3.org/2000/svg">
<path d="M6 0C4.40935 0.00211004 2.88445 0.634929 1.75969 1.75969C0.634929 2.88445 0.00211004 4.40935 0 6C0 10.3075 5.59 15.7025 5.8275 15.93C5.8737 15.9749 5.93558 16 6 16C6.06442 16 6.1263 15.9749 6.1725 15.93C6.41 15.7025 12 10.3075 12 6C11.9979 4.40935 11.3651 2.88445 10.2403 1.75969C9.11555 0.634929 7.59065 0.00211004 6 0V0ZM6 8.75C5.4561 8.75 4.92442 8.58871 4.47218 8.28654C4.01995 7.98437 3.66747 7.55488 3.45933 7.05238C3.25119 6.54988 3.19673 5.99695 3.30284 5.4635C3.40895 4.93005 3.67086 4.44005 4.05546 4.05546C4.44005 3.67086 4.93005 3.40895 5.4635 3.30284C5.99695 3.19673 6.54988 3.25119 7.05238 3.45933C7.55488 3.66747 7.98437 4.01995 8.28654 4.47218C8.58871 4.92442 8.75 5.4561 8.75 6C8.74956 6.72921 8.45969 7.42843 7.94406 7.94406C7.42843 8.45969 6.72921 8.74956 6 8.75Z" fill="#1A531C"/>
</svg>
