<svg width="26" height="26" viewBox="0 0 26 26" fill="none" xmlns="http://www.w3.org/2000/svg">
<path d="M25.1693 23.6819L18.9813 17.246C20.5723 15.3546 21.4441 12.9749 21.4441 10.4975C21.4441 4.70927 16.7348 0 10.9466 0C5.15838 0 0.449112 4.70927 0.449112 10.4975C0.449112 16.2857 5.15838 20.995 10.9466 20.995C13.1196 20.995 15.1903 20.3396 16.9608 19.0954L23.1958 25.5801C23.4564 25.8508 23.8069 26 24.1826 26C24.5381 26 24.8754 25.8644 25.1314 25.618C25.6755 25.0945 25.6928 24.2264 25.1693 23.6819ZM10.9466 2.73848C15.225 2.73848 18.7056 6.21908 18.7056 10.4975C18.7056 14.7759 15.225 18.2565 10.9466 18.2565C6.66819 18.2565 3.18759 14.7759 3.18759 10.4975C3.18759 6.21908 6.66819 2.73848 10.9466 2.73848Z" fill="white"/>
</svg>
